<?xml version="1.0" standalone="no"?>
<!DOCTYPE svg PUBLIC "-//W3C//DTD SVG 20010904//EN"
 "http://www.w3.org/TR/2001/REC-SVG-20010904/DTD/svg10.dtd">
<svg version="1.0" xmlns="http://www.w3.org/2000/svg"
 width="261.000000pt" height="261.000000pt" viewBox="0 0 261.000000 261.000000"
 preserveAspectRatio="xMidYMid meet">
<metadata>
Created by potrace 1.14, written by Peter Selinger 2001-2017
</metadata>
<g transform="translate(0.000000,261.000000) scale(0.100000,-0.100000)"
fill="#000000" stroke="none">
<path d="M1372 2535 c-93 -28 -146 -99 -158 -211 -5 -49 -3 -63 10 -77 34 -34
62 -9 69 59 9 86 43 134 108 152 36 10 56 9 129 -3 l40 -7 1 -161 c2 -250 13
-639 24 -817 16 -260 16 -254 31 -410 3 -30 7 -68 9 -85 2 -16 7 -57 10 -90 3
-33 10 -85 15 -115 6 -30 12 -73 16 -95 24 -162 90 -388 138 -470 33 -55 82
-102 121 -115 40 -13 87 1 102 31 11 21 10 26 -8 41 -15 13 -26 15 -38 9 -59
-32 -139 100 -194 324 -21 85 -33 149 -63 336 -9 57 -28 234 -38 359 -6 62 -9
113 -21 300 -9 157 -15 333 -20 628 l-6 294 23 -7 c42 -12 132 -58 229 -117
54 -32 102 -58 107 -58 20 0 42 42 32 60 -9 18 -150 105 -245 153 -174 87
-328 120 -423 92z"/>
<path d="M651 2496 c-5 -13 -12 -52 -16 -87 -3 -35 -8 -75 -10 -89 -2 -14 -6
-61 -10 -105 -4 -44 -8 -91 -10 -106 -2 -14 -6 -71 -10 -128 -4 -56 -8 -121
-10 -144 -25 -282 -24 -817 1 -1077 11 -115 53 -326 80 -402 121 -338 348
-374 636 -100 71 69 72 70 56 94 -23 35 -44 31 -94 -19 -25 -24 -73 -64 -107
-90 -144 -106 -244 -114 -325 -24 -51 57 -108 198 -131 328 -6 32 -13 67 -15
78 -2 12 -7 48 -11 80 -4 33 -8 69 -10 80 -23 151 -23 770 0 1035 1 19 6 80
10 135 3 55 8 118 10 140 2 22 6 72 10 110 3 39 8 88 11 110 18 149 19 176 12
190 -14 24 -57 19 -67 -9z"/>
</g>
</svg>
